# xmcd
#
# Track frame offsets: 
#        150
#        17162
#        37730
#        54385
#        69002
#        84730
#        101657
#        120827
#        139155
#        151680
#        165465
#        182417
#        199307
#        215745
#        232090
#        247797
#        267175
#        286292
#
# Disc length: 4067 seconds
#
# Revision: 6
# Processed by: cddbd v1.5.1PL0 Copyright (c) Steve Scherf et al.
# Submitted via: ExactAudioCopy v0.95a5
#
DISCID=e80fe112
DTITLE=Boyzone - boyzone...by request
DYEAR=1900
DGENRE=
TTITLE0=I love the way you love me
TTITLE1=No matter what
TTITLE2=All that I need
TTITLE3=Baby can I hold you
TTITLE4=Picture of you
TTITLE5=Isn't it a wonder
TTITLE6=A different beat
TTITLE7=Words
TTITLE8=Father and son
TTITLE9=So good
TTITLE10=Coming home now
TTITLE11=Key to my life
TTITLE12=Love me for a reason
TTITLE13=When the going gets tough
TTITLE14=You needed me
TTITLE15=When you say nothing at all
TTITLE16=All the time in the world
TTITLE17=I'll never not need you
EXTD=
EXTT0=
EXTT1=
EXTT2=
EXTT3=
EXTT4=
EXTT5=
EXTT6=
EXTT7=
EXTT8=
EXTT9=
EXTT10=
EXTT11=
EXTT12=
EXTT13=
EXTT14=
EXTT15=
EXTT16=
EXTT17=
PLAYORDER=
